<svg width="24" height="24" viewBox="0 0 24 24" fill="none" xmlns="http://www.w3.org/2000/svg">
<path d="M6.85177 9.65447C7.4273 9.65447 7.89385 9.18792 7.89385 8.61239C7.89385 8.03687 7.4273 7.57031 6.85177 7.57031C6.27625 7.57031 5.80969 8.03687 5.80969 8.61239C5.80969 9.18792 6.27625 9.65447 6.85177 9.65447Z" fill="#D9D9D9"/>
<path d="M15.7906 5.83151C16.9527 5.83151 17.8947 4.88948 17.8947 3.72743C17.8947 2.56538 16.9527 1.62335 15.7906 1.62335C14.6286 1.62335 13.6865 2.56538 13.6865 3.72743C13.6865 4.88948 14.6286 5.83151 15.7906 5.83151Z" fill="#D9D9D9"/>
<path d="M11.4509 5.71155C12.1758 5.71155 12.7634 5.12389 12.7634 4.39899C12.7634 3.67408 12.1758 3.08643 11.4509 3.08643C10.726 3.08643 10.1383 3.67408 10.1383 4.39899C10.1383 5.12389 10.726 5.71155 11.4509 5.71155Z" fill="#D9D9D9"/>
<path d="M17.4967 17.7703C17.1733 17.2512 16.9918 16.6564 16.9703 16.0451C16.9488 15.4339 17.0881 14.8277 17.3743 14.2872L17.3661 14.275C17.9049 13.4683 18.1919 12.5197 18.1908 11.5495C18.1908 8.83131 15.9871 6.62787 13.2691 6.62787C10.5509 6.62787 8.34741 8.83131 8.34741 11.5495C8.34741 12.0804 8.43381 12.5907 8.58957 13.0699C8.69266 13.4938 8.86004 13.8994 9.08589 14.2726L9.06285 14.2858L12.6278 20.4607C13.0041 21.5743 14.0551 22.3769 15.2954 22.3769C16.8516 22.3769 18.1137 21.1155 18.1137 19.5591C18.1137 18.8839 17.8757 18.2645 17.4794 17.7792L17.4967 17.7703Z" fill="#D9D9D9"/>
<path d="M8.67868 7.44842C9.2542 7.44842 9.72076 6.98186 9.72076 6.40634C9.72076 5.83081 9.2542 5.36426 8.67868 5.36426C8.10315 5.36426 7.6366 5.83081 7.6366 6.40634C7.6366 6.98186 8.10315 7.44842 8.67868 7.44842Z" fill="#D9D9D9"/>
</svg>
